<svg width="24" height="24" viewBox="0 0 24 24" fill="none" xmlns="http://www.w3.org/2000/svg">
<path d="M17 11V8C17 5.23858 14.7614 3 12 3C9.23858 3 7 5.23858 7 8V11M12 14.5V16.5M9.8 21H14.2C15.8802 21 16.7202 21 17.362 20.673C17.9265 20.3854 18.3854 19.9265 18.673 19.362C19 18.7202 19 17.8802 19 16.2V15.8C19 14.1198 19 13.2798 18.673 12.638C18.3854 12.0735 17.9265 11.6146 17.362 11.327C16.7202 11 15.8802 11 14.2 11H9.8C8.11984 11 7.27976 11 6.63803 11.327C6.07354 11.6146 5.6146 12.0735 5.32698 12.638C5 13.2798 5 14.1198 5 15.8V16.2C5 17.8802 5 18.7202 5.32698 19.362C5.6146 19.9265 6.07354 20.3854 6.63803 20.673C7.27976 21 8.11984 21 9.8 21Z" stroke="currentColor" stroke-width="2" stroke-linecap="round" stroke-linejoin="round"/>
</svg>
