<svg width="24" height="24" viewBox="0 0 24 24" fill="none" xmlns="http://www.w3.org/2000/svg">
<path d="M16.5 9.4L7.5 4.21M21 16V8C20.9996 7.6493 20.9071 7.30483 20.7315 7.00017C20.556 6.69552 20.3037 6.44136 20 6.264L13 2.264C12.696 2.08669 12.3511 1.99377 12 1.99377C11.6489 1.99377 11.304 2.08669 11 2.264L4 6.264C3.69626 6.44136 3.44398 6.69552 3.26846 7.00017C3.09294 7.30483 3.00036 7.6493 3 8V16C3.00036 16.3507 3.09294 16.6952 3.26846 16.9998C3.44398 17.3045 3.69626 17.5586 4 17.736L11 21.736C11.304 21.9133 11.6489 22.0062 12 22.0062C12.3511 22.0062 12.696 21.9133 13 21.736L20 17.736C20.3037 17.5586 20.556 17.3045 20.7315 16.9998C20.9071 16.6952 20.9996 16.3507 21 16Z" stroke="currentColor" stroke-width="2" stroke-linecap="round" stroke-linejoin="round"/>
<path d="M3.27002 6.96L12 12.01L20.73 6.96M12 22.08V12" stroke="currentColor" stroke-width="2" stroke-linecap="round" stroke-linejoin="round"/>
</svg>
