<svg width="24" height="24" viewBox="0 0 24 24" fill="none" xmlns="http://www.w3.org/2000/svg">
<path d="M2 12L11.6422 2.35783C11.8405 2.15953 11.9396 2.06038 12.0558 1.98697C12.1588 1.92191 12.2711 1.87276 12.389 1.84115C12.5221 1.80544 12.6631 1.80078 12.945 1.79148L18.2889 1.61571C19.0558 1.59043 19.4392 1.57779 19.7301 1.72C19.9853 1.84519 20.1927 2.04907 20.3223 2.30189C20.4694 2.58969 20.4632 2.97309 20.4507 3.73989L20.3508 9.0844C20.3457 9.36634 20.3432 9.50731 20.3113 9.64061C20.283 9.75858 20.2371 9.87138 20.1751 9.97537C20.105 10.0929 20.0088 10.1946 19.8165 10.3982L10.5 20M2 12L10.5 20M2 12L5 9M10.5 20L13 17" stroke="currentColor" stroke-width="2" stroke-linecap="round" stroke-linejoin="round"/>
</svg>
